<svg width="1920" height="1080" viewBox="0 0 1920 1080" fill="none" xmlns="http://www.w3.org/2000/svg">
  <rect width="1920" height="1080" rx="24" fill="url(#paint0_linear)" />
  <g opacity="0.8" filter="url(#filter0_f)">
    <circle cx="320" cy="220" r="220" fill="#FFE205" />
  </g>
  <g opacity="0.6" filter="url(#filter1_f)">
    <circle cx="1640" cy="300" r="260" fill="#35A4DD" />
  </g>
  <g opacity="0.7" filter="url(#filter2_f)">
    <ellipse cx="960" cy="880" rx="420" ry="240" fill="#0B5F90" />
  </g>
  <g opacity="0.2">
    <path
      d="M526 320C644 188 876 192 1042 276C1208 360 1380 296 1496 392C1612 488 1588 664 1440 768C1292 872 1020 904 824 864C628 824 406 708 374 568C342 428 408 452 526 320Z"
      fill="url(#paint1_linear)"
    />
  </g>
  <g opacity="0.3">
    <path
      d="M280 828C280 692.684 408.684 564 544 564H1008C1143.32 564 1272 692.684 1272 828C1272 963.316 1143.32 1092 1008 1092H544C408.684 1092 280 963.316 280 828Z"
      fill="url(#paint2_radial)"
    />
  </g>
  <defs>
    <filter id="filter0_f" x="-140" y="-240" width="920" height="920" filterUnits="userSpaceOnUse" color-interpolation-filters="sRGB">
      <feFlood flood-opacity="0" result="BackgroundImageFix" />
      <feBlend mode="normal" in="SourceGraphic" in2="BackgroundImageFix" result="shape" />
      <feGaussianBlur stdDeviation="120" result="effect1_foregroundBlur" />
    </filter>
    <filter id="filter1_f" x="1140" y="-200" width="1000" height="1000" filterUnits="userSpaceOnUse" color-interpolation-filters="sRGB">
      <feFlood flood-opacity="0" result="BackgroundImageFix" />
      <feBlend mode="normal" in="SourceGraphic" in2="BackgroundImageFix" result="shape" />
      <feGaussianBlur stdDeviation="140" result="effect1_foregroundBlur" />
    </filter>
    <filter id="filter2_f" x="340" y="400" width="1240" height="960" filterUnits="userSpaceOnUse" color-interpolation-filters="sRGB">
      <feFlood flood-opacity="0" result="BackgroundImageFix" />
      <feBlend mode="normal" in="SourceGraphic" in2="BackgroundImageFix" result="shape" />
      <feGaussianBlur stdDeviation="110" result="effect1_foregroundBlur" />
    </filter>
    <linearGradient id="paint0_linear" x1="1920" y1="0" x2="0" y2="1080" gradientUnits="userSpaceOnUse">
      <stop stop-color="#0D7AB8" />
      <stop offset="1" stop-color="#02182A" />
    </linearGradient>
    <linearGradient id="paint1_linear" x1="1472" y1="198" x2="446" y2="848" gradientUnits="userSpaceOnUse">
      <stop stop-color="#8FD6FF" stop-opacity="0.4" />
      <stop offset="1" stop-color="#0B5F90" stop-opacity="0.1" />
    </linearGradient>
    <radialGradient id="paint2_radial" cx="0" cy="0" r="1" gradientUnits="userSpaceOnUse" gradientTransform="translate(776 828) rotate(90) scale(264 496)">
      <stop stop-color="#FFE205" stop-opacity="0.35" />
      <stop offset="1" stop-color="#FFE205" stop-opacity="0" />
    </radialGradient>
  </defs>
</svg>

