<svg width="420" height="320" viewBox="0 0 420 320" fill="none" xmlns="http://www.w3.org/2000/svg">
  <rect width="420" height="320" rx="24" fill="url(#paint0_linear)" />
  <path
    d="M62 226C62 191.206 90.206 163 125 163H316C350.794 163 379 191.206 379 226C379 260.794 350.794 289 316 289H125C90.206 289 62 260.794 62 226Z"
    fill="url(#paint1_radial)"
  />
  <path
    d="M108 94C108 76.3269 122.327 62 140 62H280C297.673 62 312 76.3269 312 94V140C312 157.673 297.673 172 280 172H140C122.327 172 108 157.673 108 140V94Z"
    fill="url(#paint2_linear)"
  />
  <circle cx="150" cy="120" r="36" fill="#FFE205" fill-opacity="0.6" />
  <circle cx="274" cy="150" r="50" fill="#F2FAFF" fill-opacity="0.3" />
  <defs>
    <linearGradient id="paint0_linear" x1="31" y1="26" x2="389" y2="294" gradientUnits="userSpaceOnUse">
      <stop stop-color="#0D7AB8" />
      <stop offset="1" stop-color="#0B5F90" />
    </linearGradient>
    <radialGradient id="paint1_radial" cx="0" cy="0" r="1" gradientUnits="userSpaceOnUse" gradientTransform="translate(220 226) rotate(90) scale(63 158)">
      <stop stop-color="#FFE205" stop-opacity="0.35" />
      <stop offset="1" stop-color="#FFE205" stop-opacity="0" />
    </radialGradient>
    <linearGradient id="paint2_linear" x1="312" y1="62" x2="108" y2="172" gradientUnits="userSpaceOnUse">
      <stop stop-color="#C8EFFF" stop-opacity="0.6" />
      <stop offset="1" stop-color="#0B5F90" stop-opacity="0.3" />
    </linearGradient>
  </defs>
</svg>

