<svg width="600" height="400" viewBox="0 0 600 400" fill="none" xmlns="http://www.w3.org/2000/svg">
  <rect width="600" height="400" rx="32" fill="url(#paint0_linear)" />
  <g opacity="0.25">
    <circle cx="160" cy="100" r="90" fill="#FFE205" />
    <circle cx="470" cy="120" r="110" fill="#0D7AB8" />
  </g>
  <path
    d="M296 138C320.957 138 341.5 117.457 341.5 92.5C341.5 67.5429 320.957 47 296 47C271.043 47 250.5 67.5429 250.5 92.5C250.5 117.457 271.043 138 296 138Z"
    fill="#FFEBD6"
  />
  <path
    d="M240 288C240 245.817 274.817 211 317 211H275C317.183 211 352 245.817 352 288V330H240V288Z"
    fill="#FFE205"
    fill-opacity="0.6"
  />
  <path
    d="M314 204C273.013 204 240 170.987 240 130C240 89.0132 273.013 56 314 56C354.987 56 388 89.0132 388 130C388 170.987 354.987 204 314 204Z"
    stroke="#F9F5E0"
    stroke-width="6"
    stroke-linecap="round"
  />
  <path
    d="M186 352C186 305.16 224.16 267 271 267H355C401.84 267 440 305.16 440 352V360H186V352Z"
    fill="#35A4DD"
    fill-opacity="0.55"
  />
  <defs>
    <linearGradient id="paint0_linear" x1="0" y1="0" x2="600" y2="400" gradientUnits="userSpaceOnUse">
      <stop stop-color="#042B44" />
      <stop offset="1" stop-color="#0B5F90" />
    </linearGradient>
  </defs>
</svg>

