<svg width="600" height="400" viewBox="0 0 600 400" fill="none" xmlns="http://www.w3.org/2000/svg">
  <rect width="600" height="400" rx="32" fill="url(#paint0_linear)" />
  <g opacity="0.28">
    <circle cx="150" cy="140" r="110" fill="#FFE205" />
    <circle cx="470" cy="90" r="90" fill="#39A9E6" />
  </g>
  <path
    d="M300 146C327.957 146 350.5 123.457 350.5 95.5C350.5 67.5429 327.957 45 300 45C272.043 45 249.5 67.5429 249.5 95.5C249.5 123.457 272.043 146 300 146Z"
    fill="#FFEBD9"
  />
  <path
    d="M232 288C232 245.817 266.817 211 309 211H293C335.183 211 370 245.817 370 288V330H232V288Z"
    fill="#FFE205"
    fill-opacity="0.62"
  />
  <path
    d="M310 204C265.302 204 230 168.698 230 124C230 79.3017 265.302 44 310 44C354.698 44 390 79.3017 390 124C390 168.698 354.698 204 310 204Z"
    stroke="#F9F5E0"
    stroke-width="6"
    stroke-linecap="round"
  />
  <path
    d="M182 352C182 305.16 220.16 267 267 267H353C399.84 267 438 305.16 438 352V360H182V352Z"
    fill="#0D7AB8"
    fill-opacity="0.6"
  />
  <defs>
    <linearGradient id="paint0_linear" x1="600" y1="0" x2="0" y2="400" gradientUnits="userSpaceOnUse">
      <stop stop-color="#042B44" />
      <stop offset="1" stop-color="#0B5F90" />
    </linearGradient>
  </defs>
</svg>

