<svg width="600" height="400" viewBox="0 0 600 400" fill="none" xmlns="http://www.w3.org/2000/svg">
  <rect width="600" height="400" rx="32" fill="url(#paint0_linear)" />
  <g opacity="0.3">
    <circle cx="160" cy="120" r="100" fill="#FFE205" />
    <circle cx="480" cy="80" r="80" fill="#39A9E6" />
  </g>
  <path
    d="M302 140C329.957 140 352.5 117.457 352.5 89.5C352.5 61.5429 329.957 39 302 39C274.043 39 251.5 61.5429 251.5 89.5C251.5 117.457 274.043 140 302 140Z"
    fill="#FFEFD0"
  />
  <path
    d="M232 288C232 244.302 267.302 209 311 209H293C336.698 209 372 244.302 372 288V329H232V288Z"
    fill="#FFE205"
    fill-opacity="0.65"
  />
  <path
    d="M312 200C267.302 200 232 164.698 232 120C232 75.3017 267.302 40 312 40C356.698 40 392 75.3017 392 120C392 164.698 356.698 200 312 200Z"
    stroke="#F9F5E0"
    stroke-width="6"
    stroke-linecap="round"
  />
  <path
    d="M184 352C184 305.16 222.16 267 269 267H355C401.84 267 440 305.16 440 352V360H184V352Z"
    fill="#0D7AB8"
    fill-opacity="0.55"
  />
  <defs>
    <linearGradient id="paint0_linear" x1="600" y1="0" x2="0" y2="400" gradientUnits="userSpaceOnUse">
      <stop stop-color="#0D7AB8" />
      <stop offset="1" stop-color="#031B2C" />
    </linearGradient>
  </defs>
</svg>

