<svg width="600" height="450" viewBox="0 0 600 450" fill="none" xmlns="http://www.w3.org/2000/svg">
  <rect width="600" height="450" rx="28" fill="url(#paint0_linear)" />
  <path
    d="M90 334C90 299.206 118.206 271 153 271H447C481.794 271 510 299.206 510 334V360C510 394.794 481.794 423 447 423H153C118.206 423 90 394.794 90 360V334Z"
    fill="url(#paint1_radial)"
  />
  <path
    d="M144 140C144 111.386 167.386 88 196 88H428C456.614 88 480 111.386 480 140V204C480 232.614 456.614 256 428 256H196C167.386 256 144 232.614 144 204V140Z"
    fill="url(#paint2_linear)"
    opacity="0.75"
  />
  <circle cx="216" cy="168" r="58" fill="#FFE205" opacity="0.5" />
  <circle cx="380" cy="214" r="70" fill="#FFFFFF" fill-opacity="0.16" />
  <defs>
    <linearGradient id="paint0_linear" x1="520" y1="66" x2="104" y2="382" gradientUnits="userSpaceOnUse">
      <stop stop-color="#031B2C" />
      <stop offset="1" stop-color="#073E63" />
    </linearGradient>
    <radialGradient id="paint1_radial" cx="0" cy="0" r="1" gradientUnits="userSpaceOnUse" gradientTransform="translate(300 347) rotate(90) scale(76 210)">
      <stop stop-color="#FFE205" stop-opacity="0.4" />
      <stop offset="1" stop-color="#FFE205" stop-opacity="0" />
    </radialGradient>
    <linearGradient id="paint2_linear" x1="480" y1="88" x2="144" y2="256" gradientUnits="userSpaceOnUse">
      <stop stop-color="#8FD6FF" stop-opacity="0.7" />
      <stop offset="1" stop-color="#0B5F90" stop-opacity="0.4" />
    </linearGradient>
  </defs>
</svg>

