<svg width="480" height="320" viewBox="0 0 480 320" fill="none" xmlns="http://www.w3.org/2000/svg">
  <rect width="480" height="320" rx="24" fill="url(#paint0_linear)" />
  <path
    d="M96 224C96 187.131 126.131 157 163 157H317C353.869 157 384 187.131 384 224C384 260.869 353.869 291 317 291H163C126.131 291 96 260.869 96 224Z"
    fill="url(#paint1_radial)"
  />
  <path
    d="M174 96C174 79.4315 187.431 66 204 66H304C320.569 66 334 79.4315 334 96V146C334 162.569 320.569 176 304 176H204C187.431 176 174 162.569 174 146V96Z"
    fill="url(#paint2_linear)"
  />
  <path
    d="M222 146L246 116L268 140L298 106"
    stroke="#FFE205"
    stroke-width="8"
    stroke-linecap="round"
    stroke-linejoin="round"
  />
  <circle cx="246" cy="116" r="12" fill="#FFE205" />
  <circle cx="268" cy="140" r="12" fill="#0D7AB8" />
  <circle cx="298" cy="106" r="12" fill="#FFE205" />
  <defs>
    <linearGradient id="paint0_linear" x1="420" y1="40" x2="68" y2="280" gradientUnits="userSpaceOnUse">
      <stop stop-color="#063A5B" />
      <stop offset="1" stop-color="#02182A" />
    </linearGradient>
    <radialGradient id="paint1_radial" cx="0" cy="0" r="1" gradientUnits="userSpaceOnUse" gradientTransform="translate(240 224) rotate(90) scale(67 144)">
      <stop stop-color="#FFE205" stop-opacity="0.35" />
      <stop offset="1" stop-color="#FFE205" stop-opacity="0" />
    </radialGradient>
    <linearGradient id="paint2_linear" x1="174" y1="66" x2="334" y2="176" gradientUnits="userSpaceOnUse">
      <stop stop-color="#8FD6FF" stop-opacity="0.5" />
      <stop offset="1" stop-color="#0B5F90" stop-opacity="0.35" />
    </linearGradient>
  </defs>
</svg>

