<svg width="480" height="320" viewBox="0 0 480 320" fill="none" xmlns="http://www.w3.org/2000/svg">
  <rect width="480" height="320" rx="24" fill="url(#paint0_linear)" />
  <path
    d="M96 224C96 187.131 126.131 157 163 157H317C353.869 157 384 187.131 384 224C384 260.869 353.869 291 317 291H163C126.131 291 96 260.869 96 224Z"
    fill="url(#paint1_radial)"
  />
  <path
    d="M138 104C138 82.9086 155.909 65 177 65H303C324.091 65 342 82.9086 342 104V150C342 171.091 324.091 189 303 189H177C155.909 189 138 171.091 138 150V104Z"
    fill="url(#paint2_linear)"
  />
  <path
    d="M220 146C220 125.565 236.565 109 257 109C277.435 109 294 125.565 294 146C294 166.435 277.435 183 257 183C236.565 183 220 166.435 220 146Z"
    stroke="#0D7AB8"
    stroke-width="8"
    stroke-linecap="round"
  />
  <path
    d="M196 146C196 110.654 224.654 82 260 82C295.346 82 324 110.654 324 146C324 181.346 295.346 210 260 210"
    stroke="#FFE205"
    stroke-width="10"
    stroke-linecap="round"
    opacity="0.8"
  />
  <defs>
    <linearGradient id="paint0_linear" x1="404" y1="50" x2="82" y2="274" gradientUnits="userSpaceOnUse">
      <stop stop-color="#0D7AB8" />
      <stop offset="1" stop-color="#031B2C" />
    </linearGradient>
    <radialGradient id="paint1_radial" cx="0" cy="0" r="1" gradientUnits="userSpaceOnUse" gradientTransform="translate(240 224) rotate(90) scale(67 144)">
      <stop stop-color="#FFE205" stop-opacity="0.35" />
      <stop offset="1" stop-color="#FFE205" stop-opacity="0" />
    </radialGradient>
    <linearGradient id="paint2_linear" x1="138" y1="65" x2="342" y2="189" gradientUnits="userSpaceOnUse">
      <stop stop-color="#9FDBFF" stop-opacity="0.4" />
      <stop offset="1" stop-color="#0B5F90" stop-opacity="0.3" />
    </linearGradient>
  </defs>
</svg>

