<svg width="480" height="320" viewBox="0 0 480 320" fill="none" xmlns="http://www.w3.org/2000/svg">
  <rect width="480" height="320" rx="24" fill="url(#paint0_linear)" />
  <path
    d="M96 224C96 187.131 126.131 157 163 157H317C353.869 157 384 187.131 384 224C384 260.869 353.869 291 317 291H163C126.131 291 96 260.869 96 224Z"
    fill="url(#paint1_radial)"
  />
  <path
    d="M150 100C150 80.1177 166.118 64 186 64H294C313.882 64 330 80.1177 330 100V148C330 167.882 313.882 184 294 184H186C166.118 184 150 167.882 150 148V100Z"
    fill="url(#paint2_linear)"
  />
  <path
    d="M232 134C232 125.163 239.163 118 248 118H272C280.837 118 288 125.163 288 134C288 142.837 280.837 150 272 150H248C239.163 150 232 142.837 232 134Z"
    stroke="#FFE205"
    stroke-width="8"
  />
  <path
    d="M212 172C212 160.954 220.954 152 232 152H288C299.046 152 308 160.954 308 172V184H212V172Z"
    fill="#FFE205"
    fill-opacity="0.45"
  />
  <circle cx="206" cy="120" r="12" fill="#FFE205" />
  <circle cx="312" cy="120" r="12" fill="#FFE205" />
  <defs>
    <linearGradient id="paint0_linear" x1="52" y1="36" x2="428" y2="284" gradientUnits="userSpaceOnUse">
      <stop stop-color="#0D7AB8" />
      <stop offset="1" stop-color="#073E63" />
    </linearGradient>
    <radialGradient id="paint1_radial" cx="0" cy="0" r="1" gradientUnits="userSpaceOnUse" gradientTransform="translate(240 224) rotate(90) scale(67 144)">
      <stop stop-color="#FFE205" stop-opacity="0.35" />
      <stop offset="1" stop-color="#FFE205" stop-opacity="0" />
    </radialGradient>
    <linearGradient id="paint2_linear" x1="150" y1="64" x2="330" y2="184" gradientUnits="userSpaceOnUse">
      <stop stop-color="#C6EAFF" stop-opacity="0.5" />
      <stop offset="1" stop-color="#0B5F90" stop-opacity="0.35" />
    </linearGradient>
  </defs>
</svg>

