<svg width="420" height="320" viewBox="0 0 420 320" fill="none" xmlns="http://www.w3.org/2000/svg">
  <rect width="420" height="320" rx="24" fill="url(#paint0_linear)" />
  <path
    d="M68 222C68 187.206 96.2056 159 131 159H312C346.794 159 375 187.206 375 222C375 256.794 346.794 285 312 285H131C96.2056 285 68 256.794 68 222Z"
    fill="url(#paint1_radial)"
  />
  <path
    d="M114 98C114 75.3563 132.356 57 155 57H292C314.644 57 333 75.3563 333 98V146C333 168.644 314.644 187 292 187H155C132.356 187 114 168.644 114 146V98Z"
    fill="url(#paint2_linear)"
  />
  <circle cx="168" cy="126" r="40" fill="#FFE205" fill-opacity="0.5" />
  <circle cx="284" cy="166" r="56" fill="#F7FBFF" fill-opacity="0.28" />
  <defs>
    <linearGradient id="paint0_linear" x1="420" y1="0" x2="0" y2="320" gradientUnits="userSpaceOnUse">
      <stop stop-color="#031B2C" />
      <stop offset="1" stop-color="#063A5B" />
    </linearGradient>
    <radialGradient id="paint1_radial" cx="0" cy="0" r="1" gradientUnits="userSpaceOnUse" gradientTransform="translate(222 222) rotate(90) scale(63 154)">
      <stop stop-color="#FFE205" stop-opacity="0.35" />
      <stop offset="1" stop-color="#FFE205" stop-opacity="0" />
    </radialGradient>
    <linearGradient id="paint2_linear" x1="333" y1="57" x2="114" y2="187" gradientUnits="userSpaceOnUse">
      <stop stop-color="#9FDBFF" stop-opacity="0.6" />
      <stop offset="1" stop-color="#0B5F90" stop-opacity="0.35" />
    </linearGradient>
  </defs>
</svg>

